# xmcd
#
# Track frame offsets:
#	150
#	22406
#	66979
#	85234
#	112241
#	141861
#	167538
#	212025
#	323065
#
# Disc length: 4771 seconds
#
# Revision: 1
# Processed by: cddbd v1.5.2PL0 Copyright (c) Steve Scherf et al.
# Submitted via: audiograbber 1.83.01
#
DISCID=8612a109
DTITLE=Grateful Dead - 70-12-28 Legion Stadium, El-Monte CA
DYEAR=1900
DGENRE=
TTITLE0=Casey Jones
TTITLE1=Smokestack Lightning
TTITLE2=Big Railroad Blues
TTITLE3=Me and Bobby McGee
TTITLE4=Deep Elem Blues
TTITLE5=Cumberland Blues
TTITLE6=Morning Dew
TTITLE7=Good Lovin'
TTITLE8=Uncle John's Band
EXTD=
EXTT0=
EXTT1=
EXTT2=
EXTT3=
EXTT4=
EXTT5=
EXTT6=
EXTT7=
EXTT8=
PLAYORDER=
